# xmcd
#
# Track frame offsets:
#	150
#	17340
#	33118
#	55497
#	70767
#	90147
#	103890
#	123487
#	140822
#	153062
#	169180
#	184837
#	203692
#
# Disc length: 2888 seconds
#
# Revision: 1
# Processed by: cddbd v1.4PL0 Copyright (c) Steve Scherf et al.
# Submitted via: audiograbber 1.82.01
#
DISCID=a40b460d
DTITLE=João Victor and Vinícius - Eu Preciso Desse Amor
DYEAR=2002
DGENRE=Sertanejo
TTITLE0=Vidas Cruzadas_Com
TTITLE1=Oh! Trem Bão
TTITLE2=Tudo Me Lembra Me Você ( Mi Dios Y Mi Cruz )
TTITLE3=Beleza Pura
TTITLE4=Pra Abrir Meu Coração
TTITLE5=Estou Bem Assim
TTITLE6=Armadilha do Amor
TTITLE7=Eu Preciso Desse Amor
TTITLE8=Doido Pra Dançar
TTITLE9=Diferente de Tudo
TTITLE10=Bateu Valeu
TTITLE11=Armadilha
TTITLE12=Com a Bunda No Vento
EXTD=
EXTT0=
EXTT1=
EXTT2=
EXTT3=
EXTT4=
EXTT5=
EXTT6=
EXTT7=
EXTT8=
EXTT9=
EXTT10=
EXTT11=
EXTT12=
PLAYORDER=
